<svg width="1200" height="535" viewBox="0 0 1200 535" fill="none" xmlns="http://www.w3.org/2000/svg">
<rect width="1200" height="535" rx="18" fill="#0D1117"/><rect x="1" y="1" width="1198" height="533" rx="17" stroke="#30363D"/>
<text x="42" y="52" fill="#F0F6FC" font-size="25" font-weight="700" font-family="Inter,Segoe UI,Arial,sans-serif">Projetos em destaque</text>
<text x="1110" y="52" text-anchor="end" fill="#58A6FF" font-size="14" font-family="ui-monospace,SFMono-Regular,Menlo,Consolas,monospace">CASES REAIS</text>

<g transform="translate(42 78)"><rect width="350" height="190" rx="14" fill="#101821" stroke="#30363D"/><rect x="18" y="18" width="42" height="42" rx="10" fill="#5036B3"/><text x="39" y="48" text-anchor="middle" fill="white" font-size="26" font-weight="700" font-family="Arial">H</text><text x="76" y="44" fill="#F0F6FC" font-size="22" font-weight="700" font-family="Inter,Arial">Hermes</text><text x="18" y="83" fill="#C9D1D9" font-size="14" font-family="Inter,Arial">Infraestrutura de agentes e automação</text><text x="18" y="104" fill="#C9D1D9" font-size="14" font-family="Inter,Arial">operacional com eventos, ferramentas,</text><text x="18" y="125" fill="#C9D1D9" font-size="14" font-family="Inter,Arial">memória, permissões e aprovações.</text><g font-size="11" font-family="ui-monospace,monospace"><rect x="18" y="145" width="58" height="24" rx="6" fill="#102238"/><text x="29" y="161" fill="#58A6FF">Python</text><rect x="83" y="145" width="65" height="24" rx="6" fill="#102238"/><text x="94" y="161" fill="#58A6FF">FastAPI</text><rect x="155" y="145" width="52" height="24" rx="6" fill="#102238"/><text x="166" y="161" fill="#58A6FF">React</text><rect x="214" y="145" width="79" height="24" rx="6" fill="#102238"/><text x="224" y="161" fill="#58A6FF">TypeScript</text></g><text x="18" y="184" fill="#3FB950" font-size="11" font-family="ui-monospace,monospace">CASE AUTORAL · EM EVOLUÇÃO</text></g>

<g transform="translate(425 78)"><rect width="350" height="190" rx="14" fill="#101821" stroke="#30363D"/><rect x="18" y="18" width="42" height="42" rx="10" fill="#E6F4EA"/><path d="M29 39l7 7 14-18" stroke="#2DA44E" stroke-width="5" stroke-linecap="round" stroke-linejoin="round"/><text x="76" y="44" fill="#F0F6FC" font-size="22" font-weight="700" font-family="Inter,Arial">PNQC</text><text x="18" y="83" fill="#C9D1D9" font-size="14" font-family="Inter,Arial">Plataforma educacional em produção</text><text x="18" y="104" fill="#C9D1D9" font-size="14" font-family="Inter,Arial">com cursos, módulos, avaliações,</text><text x="18" y="125" fill="#C9D1D9" font-size="14" font-family="Inter,Arial">progresso e perfis de acesso.</text><g font-size="11" font-family="ui-monospace,monospace"><rect x="18" y="145" width="52" height="24" rx="6" fill="#102238"/><text x="29" y="161" fill="#58A6FF">React</text><rect x="77" y="145" width="79" height="24" rx="6" fill="#102238"/><text x="87" y="161" fill="#58A6FF">TypeScript</text><rect x="163" y="145" width="43" height="24" rx="6" fill="#102238"/><text x="174" y="161" fill="#58A6FF">Vite</text><rect x="213" y="145" width="74" height="24" rx="6" fill="#102238"/><text x="223" y="161" fill="#58A6FF">Supabase</text></g><text x="18" y="184" fill="#3FB950" font-size="11" font-family="ui-monospace,monospace">EM PRODUÇÃO</text></g>

<g transform="translate(808 78)"><rect width="350" height="190" rx="14" fill="#101821" stroke="#30363D"/><rect x="18" y="18" width="42" height="42" rx="10" fill="#05070A" stroke="#4C5664"/><text x="39" y="48" text-anchor="middle" fill="#F0F6FC" font-size="25" font-weight="700" font-style="italic" font-family="Georgia">B</text><text x="76" y="44" fill="#F0F6FC" font-size="22" font-weight="700" font-family="Inter,Arial">Barthy Web Studio V2</text><text x="18" y="83" fill="#C9D1D9" font-size="14" font-family="Inter,Arial">Site institucional e portfólio com</text><text x="18" y="104" fill="#C9D1D9" font-size="14" font-family="Inter,Arial">dois temas, experiência responsiva</text><text x="18" y="125" fill="#C9D1D9" font-size="14" font-family="Inter,Arial">e progressive enhancement.</text><g font-size="11" font-family="ui-monospace,monospace"><rect x="18" y="145" width="52" height="24" rx="6" fill="#102238"/><text x="29" y="161" fill="#58A6FF">React</text><rect x="77" y="145" width="79" height="24" rx="6" fill="#102238"/><text x="87" y="161" fill="#58A6FF">TypeScript</text><rect x="163" y="145" width="43" height="24" rx="6" fill="#102238"/><text x="174" y="161" fill="#58A6FF">Vite</text><rect x="213" y="145" width="70" height="24" rx="6" fill="#102238"/><text x="224" y="161" fill="#58A6FF">Tailwind</text></g><text x="18" y="184" fill="#58A6FF" font-size="11" font-family="ui-monospace,monospace">CASE AUTORAL</text></g>

<g transform="translate(235 294)"><rect width="350" height="190" rx="14" fill="#101821" stroke="#30363D"/><circle cx="39" cy="39" r="21" fill="#14275A"/><circle cx="39" cy="39" r="13" stroke="#7C8CFF" stroke-width="2"/><path d="M19 39h40M39 19c8 8 8 32 0 40M39 19c-8 8-8 32 0 40" stroke="#7C8CFF"/><text x="76" y="44" fill="#F0F6FC" font-size="22" font-weight="700" font-family="Inter,Arial">Portfólio</text><text x="18" y="83" fill="#C9D1D9" font-size="14" font-family="Inter,Arial">Cases reais, decisões técnicas e</text><text x="18" y="104" fill="#C9D1D9" font-size="14" font-family="Inter,Arial">evidências de entrega organizadas</text><text x="18" y="125" fill="#C9D1D9" font-size="14" font-family="Inter,Arial">em uma experiência própria.</text><g font-size="11" font-family="ui-monospace,monospace"><rect x="18" y="145" width="52" height="24" rx="6" fill="#102238"/><text x="29" y="161" fill="#58A6FF">React</text><rect x="77" y="145" width="79" height="24" rx="6" fill="#102238"/><text x="87" y="161" fill="#58A6FF">TypeScript</text><rect x="163" y="145" width="43" height="24" rx="6" fill="#102238"/><text x="174" y="161" fill="#58A6FF">Vite</text><rect x="213" y="145" width="70" height="24" rx="6" fill="#102238"/><text x="224" y="161" fill="#58A6FF">Tailwind</text></g><text x="18" y="184" fill="#3FB950" font-size="11" font-family="ui-monospace,monospace">PUBLICADO</text></g>

<g transform="translate(618 294)"><rect width="350" height="190" rx="14" fill="#101821" stroke="#30363D"/><circle cx="39" cy="39" r="21" fill="#0D241C"/><circle cx="39" cy="39" r="13" stroke="#3FB950" stroke-width="2"/><path d="M39 39l11-6M39 39V25" stroke="#3FB950" stroke-width="2" stroke-linecap="round"/><circle cx="39" cy="39" r="3" fill="#3FB950"/><text x="76" y="44" fill="#F0F6FC" font-size="22" font-weight="700" font-family="Inter,Arial">RadarDF</text><text x="18" y="83" fill="#C9D1D9" font-size="14" font-family="Inter,Arial">Produto para centralizar oportunidades,</text><text x="18" y="104" fill="#C9D1D9" font-size="14" font-family="Inter,Arial">currículo estruturado, matching e</text><text x="18" y="125" fill="#C9D1D9" font-size="14" font-family="Inter,Arial">fluxos de candidatura no DF.</text><g font-size="11" font-family="ui-monospace,monospace"><rect x="18" y="145" width="64" height="24" rx="6" fill="#102238"/><text x="28" y="161" fill="#58A6FF">Produto</text><rect x="89" y="145" width="47" height="24" rx="6" fill="#102238"/><text x="100" y="161" fill="#58A6FF">Dados</text><rect x="143" y="145" width="82" height="24" rx="6" fill="#102238"/><text x="153" y="161" fill="#58A6FF">Automação</text><rect x="232" y="145" width="33" height="24" rx="6" fill="#102238"/><text x="244" y="161" fill="#58A6FF">IA</text></g><text x="18" y="184" fill="#D29922" font-size="11" font-family="ui-monospace,monospace">EM DESENVOLVIMENTO</text></g>
</svg>